<svg aria-hidden="true" style="position: absolute; width: 0; height: 0; overflow: hidden;" version="1.1" xmlns="http://www.w3.org/2000/svg" xmlns:xlink="http://www.w3.org/1999/xlink">
<defs>
<symbol id="icon--1" viewBox="0 0 40 32">
<path fill="#fff" style="fill: var(--color1, #fff)" d="M11.025 18.285c2.051 0 3.675 0.642 4.872 1.925 1.282 1.203 1.923 2.807 1.923 4.812 0 2.165-0.769 3.89-2.308 5.173-1.453 1.203-3.462 1.804-6.026 1.804-2.991 0-5.341-1.082-7.051-3.248-1.624-2.166-2.436-5.253-2.436-9.264 0-3.609 0.855-6.937 2.564-9.985 1.71-3.127 4.274-6.255 7.693-9.383 0.085-0.080 0.213-0.12 0.384-0.12 0.257 0 0.47 0.12 0.641 0.361s0.171 0.441 0 0.602c-4.188 4.009-6.282 8.741-6.282 14.194 0 2.246 0.428 3.89 1.282 4.933 0.769-1.203 2.351-1.805 4.743-1.805zM33.206 18.285c2.051 0 3.675 0.642 4.871 1.925 1.282 1.203 1.923 2.807 1.923 4.812 0 2.165-0.769 3.89-2.307 5.173-1.453 1.203-3.462 1.804-6.026 1.804-2.991 0-5.341-1.082-7.051-3.248-1.624-2.166-2.436-5.253-2.436-9.264 0-3.609 0.855-6.937 2.564-9.985 1.709-3.127 4.273-6.255 7.693-9.383 0.085-0.080 0.214-0.12 0.385-0.12 0.257 0 0.47 0.12 0.641 0.361s0.171 0.441 0 0.602c-4.188 4.010-6.282 8.742-6.282 14.195 0 2.246 0.427 3.89 1.282 4.933 0.77-1.203 2.351-1.805 4.743-1.805z"></path>
</symbol>
<symbol id="icon-Group-2-1" viewBox="0 0 32 32">
<path fill="none" stroke="#fff" style="stroke: var(--color1, #fff)" stroke-linejoin="miter" stroke-linecap="butt" stroke-miterlimit="10" stroke-width="2.4615" d="M22.811 1.231h-13.622c-4.395 0-7.958 3.563-7.958 7.958v0 13.622c0 4.395 3.563 7.958 7.958 7.958v0h13.622c4.395 0 7.958-3.563 7.958-7.958v0-13.622c0-4.395-3.563-7.958-7.958-7.958v0z"></path>
<path fill="none" stroke="#fff" style="stroke: var(--color1, #fff)" stroke-linejoin="miter" stroke-linecap="butt" stroke-miterlimit="10" stroke-width="2.4615" d="M16 23.13c3.938 0 7.13-3.192 7.13-7.13s-3.192-7.13-7.13-7.13v0c-3.938 0-7.13 3.192-7.13 7.13s3.192 7.13 7.13 7.13v0z"></path>
<path fill="#fff" style="fill: var(--color1, #fff)" d="M24.658 8.87c0.844 0 1.528-0.684 1.528-1.528s-0.684-1.528-1.528-1.528v0c-0.844 0-1.528 0.684-1.528 1.528s0.684 1.528 1.528 1.528v0z"></path>
</symbol>
<symbol id="icon-omega-sign-svgrepo-com-1-1" viewBox="0 0 32 32">
<path fill="#fff" style="fill: var(--color1, #fff)" d="M31.352 27.678h-3.388c2.249-2.984 3.488-6.714 3.488-10.504 0-9.178-6.932-16.646-15.453-16.646s-15.453 7.469-15.453 16.646c0 3.79 1.238 7.521 3.486 10.504h-3.385c-0.358 0-0.648 0.29-0.648 0.648v0 2.498c0 0.358 0.29 0.648 0.648 0.648h9.245c0.358 0 0.648-0.29 0.648-0.648v0-2.782c0-0 0-0.001 0-0.001 0-0.16-0.058-0.307-0.155-0.42l0.001 0.001-0.036-0.042c-0.036-0.043-0.077-0.079-0.123-0.111l-0.002-0.001c-3.182-2.206-5.158-6.15-5.158-10.294 0-6.686 4.904-12.124 10.932-12.124s10.932 5.439 10.932 12.124c0 4.162-1.99 8.114-5.191 10.314-0.17 0.118-0.28 0.313-0.28 0.533v0 2.802c0 0.358 0.29 0.648 0.648 0.648h9.244c0.358 0 0.648-0.29 0.648-0.648v0-2.498c0-0 0-0.001 0-0.001 0-0.357-0.29-0.647-0.647-0.647-0 0-0.001 0-0.001 0h0z"></path>
</symbol>
<symbol id="icon-image-3-Traced-1" viewBox="0 0 20 32">
<path d="M0 10.901c0 10.462 0.004 10.935 0.096 11.741 0.053 0.462 0.122 0.962 0.154 1.112 0.287 1.364 0.866 2.377 1.765 3.091 0.818 0.649 2.137 1.069 3.607 1.146l0.622 0.033-0.013-3.409c-0.007-1.875-0.007-4.288 0-5.362l0.013-1.953 0.716 0.79c1.013 1.118 1.034 1.141 1.448 1.607 0.205 0.231 0.385 0.432 0.399 0.445 0.228 0.243 0.999 1.103 1.768 1.965l0.594 0.677 0.87 0.97c0.504 0.565 0.809 0.904 1.115 1.241l-0.18-0.201c0.063 0.068 0.365 0.407 0.672 0.753l0.558 0.63 2.998 0.001c2.654 0.001 3.161-0.017 2.961-0.106-0.021-0.009-0.205-0.206-0.41-0.437s-0.396-0.445-0.423-0.475c-0.027-0.030-0.187-0.208-0.355-0.396-2.047-2.292-3.092-3.459-3.278-3.662-0.027-0.030-0.184-0.208-0.348-0.395-0.364-0.415-0.682-0.768-1.006-1.116l0.030 0.033c-0.199-0.215-0.414-0.457-1.164-1.308-0.164-0.182-0.305-0.337-0.449-0.489l0.014 0.015c-0.124-0.131-0.249-0.271-0.37-0.413l-0.012-0.015c-0.097-0.123-0.097-0.124 0.011-0.244 0.060-0.066 0.277-0.309 0.482-0.54s0.396-0.444 0.423-0.473c0.122-0.132 0.365-0.404 0.608-0.676l0.138-0.158c0.083-0.094 0.892-0.99 0.945-1.048 0.027-0.030 0.196-0.217 0.373-0.416s0.346-0.387 0.373-0.417 0.126-0.143 0.219-0.252c0.093-0.109 0.353-0.398 0.577-0.643s0.495-0.546 0.601-0.668c0.107-0.123 0.207-0.234 0.221-0.247s0.394-0.437 0.844-0.94c0.449-0.504 0.83-0.927 0.844-0.94s0.194-0.214 0.399-0.446c0.205-0.231 0.457-0.51 0.559-0.618s0.187-0.215 0.187-0.235c0-0.020-1.349-0.037-2.999-0.037h-2.999l-0.157 0.185c-0.213 0.252-0.384 0.444-0.603 0.681-0.101 0.109-0.631 0.699-1.177 1.311-0.525 0.592-0.858 0.963-1.193 1.332l0.173-0.194c-0.159 0.173-0.492 0.543-0.824 0.915l-0.196 0.223c-0.48 0.541-0.813 0.912-1.148 1.281l0.127-0.143c-0.015 0.013-0.304 0.336-0.643 0.717-0.359 0.405-0.635 0.711-0.913 1.015l0.067-0.075c-0.126 0.136-0.397 0.436-0.602 0.667s-0.415 0.465-0.465 0.52c-0.051 0.055-0.148 0.172-0.217 0.261s-0.145 0.161-0.169 0.161c-0.025 0-0.039-3.616-0.031-8.636l0.013-8.636h-6.244v10.901zM0.21 29.931c-0.049 0.031-0.060 0.272-0.050 1.027l0.014 0.986h0.348l0.015-0.345c0.014-0.318 0.095-0.521 0.209-0.521 0.018 0 0.173 0.2 0.344 0.445l0.31 0.445h0.249c0.29 0 0.306 0.052-0.194-0.614-0.203-0.27-0.377-0.515-0.388-0.544s0.148-0.229 0.352-0.444c0.204-0.214 0.359-0.412 0.341-0.439s-0.124-0.039-0.238-0.026c-0.176 0.020-0.251 0.069-0.503 0.334-0.152 0.16-0.273 0.286-0.395 0.412l0.023-0.024c-0.067 0.068-0.077 0.034-0.1-0.316-0.024-0.375-0.031-0.393-0.149-0.406-0.068-0.007-0.153 0.006-0.188 0.028zM2.124 29.923c-0.019 0.019-0.035 0.488-0.035 1.042v1.008l1.468-0.027v-0.347l-1.12-0.028v-0.492h0.945v-0.343l-0.921-0.028v-0.396l1.076-0.028-0.015-0.184-0.015-0.184-0.675-0.014c-0.371-0.007-0.69 0.002-0.709 0.021zM3.804 29.954c-0.013 0.035 0.117 0.497 0.29 1.027l0.315 0.964h0.425l0.213-0.644c0.336-1.015 0.427-1.303 0.427-1.359 0-0.028-0.086-0.052-0.19-0.052-0.214 0-0.183-0.064-0.487 1.002-0.076 0.265-0.155 0.483-0.177 0.483s-0.053-0.061-0.071-0.136c-0.085-0.37-0.388-1.279-0.437-1.311-0.091-0.059-0.281-0.043-0.308 0.025zM5.733 29.931c-0.049 0.031-0.060 0.272-0.050 1.027l0.014 0.986h0.348v-2.029l-0.124-0.013c-0.068-0.007-0.153 0.006-0.188 0.028zM6.43 29.932c-0.048 0.031-0.060 0.27-0.049 1.026l0.014 0.986h0.348l0.025-0.693 0.025-0.693 0.194 0.346c0.107 0.191 0.287 0.502 0.401 0.693 0.207 0.346 0.208 0.347 0.428 0.347h0.22l0.014-1.004c0.015-1.090 0.012-1.099-0.261-1.030-0.122 0.031-0.123 0.033-0.137 0.711l-0.014 0.68-0.131-0.223c-0.033-0.048-0.122-0.202-0.209-0.357l-0.059-0.114c-0.252-0.457-0.338-0.593-0.415-0.656-0.086-0.070-0.299-0.081-0.394-0.020zM9.028 29.954c-0.014 0.035-0.018 0.497-0.011 1.027l0.014 0.964 0.373 0.031v-0.681c0-0.722 0.036-0.785 0.165-0.29 0.043 0.163 0.119 0.442 0.168 0.619l0.091 0.322 0.204 0.015c0.162 0.012 0.21-0.004 0.231-0.074 0.015-0.049 0.095-0.342 0.178-0.652s0.164-0.575 0.179-0.59c0.015-0.015 0.027 0.277 0.027 0.649v0.676h0.398v-1.009c0-1.11 0.012-1.070-0.315-1.068-0.225 0.001-0.285 0.055-0.359 0.327-0.036 0.133-0.113 0.419-0.172 0.637-0.115 0.427-0.174 0.533-0.216 0.388-0.21-0.714-0.331-1.159-0.331-1.22 0-0.096-0.107-0.134-0.379-0.134-0.134 0-0.231 0.025-0.246 0.063zM11.407 29.924c-0.081 0.032-0.086 1.216-0.006 1.529 0.139 0.551 0.877 0.735 1.291 0.322 0.194-0.193 0.244-0.435 0.245-1.179l0-0.655-0.124-0.031c-0.26-0.065-0.273-0.030-0.274 0.708-0.001 0.751-0.039 0.894-0.263 0.967-0.183 0.060-0.426-0.038-0.487-0.198-0.025-0.065-0.046-0.416-0.046-0.779 0-0.556-0.012-0.664-0.079-0.69-0.037-0.016-0.080-0.025-0.125-0.025-0.048 0-0.093 0.010-0.134 0.029l0.002-0.001zM13.257 29.954c-0.014 0.035-0.018 0.497-0.011 1.027l0.014 0.964h0.348l0.025-0.384c0.014-0.211 0.041-0.384 0.062-0.383l0.299 0.001c0.369 0.001 0.406 0.038 0.435 0.431l0.025 0.336 0.386 0.031-0.023-0.399c-0.017-0.283-0.048-0.426-0.109-0.493-0.081-0.089-0.079-0.101 0.041-0.231 0.272-0.292 0.093-0.789-0.322-0.897-0.316-0.082-1.139-0.084-1.17-0.002zM15.209 29.924c-0.018 0.018-0.033 0.486-0.033 1.039v1.006h0.344l0.030-0.718 0.351-0.025c0.573-0.041 0.797-0.254 0.758-0.721-0.039-0.469-0.279-0.608-1.063-0.613-0.194-0.001-0.367 0.013-0.385 0.031zM16.939 29.954c-0.013 0.035-0.018 0.497-0.011 1.027l0.013 0.964h0.348l0.014-0.433 0.015-0.433h0.838l0.015 0.433 0.014 0.433h0.348l0.013-1.001 0.014-1.001-0.125-0.031c-0.241-0.060-0.275-0.008-0.275 0.423v0.397h-0.846v-0.391c0-0.311-0.016-0.397-0.079-0.421-0.13-0.049-0.271-0.034-0.297 0.033zM18.737 29.934c-0.012 0.019 0.116 0.279 0.285 0.577 0.299 0.53 0.307 0.553 0.332 0.988l0.026 0.446h0.348l0.025-0.421c0.021-0.35 0.048-0.456 0.162-0.63 0.075-0.115 0.137-0.222 0.137-0.237s0.088-0.182 0.196-0.372l0.196-0.345-0.121-0.031c-0.244-0.061-0.337 0.012-0.539 0.426-0.106 0.217-0.209 0.395-0.228 0.395s-0.105-0.15-0.19-0.334c-0.086-0.184-0.177-0.365-0.203-0.402-0.049-0.072-0.39-0.121-0.427-0.062zM14.401 30.365c0.097 0.096 0.1 0.22 0.009 0.344-0.054 0.073-0.148 0.099-0.423 0.114l-0.354 0.020v-0.556h0.345c0.247 0 0.367 0.022 0.423 0.078zM16.174 30.338c0.065 0.035 0.096 0.103 0.096 0.21-0.001 0.263-0.059 0.306-0.408 0.307l-0.313 0.001-0.015-0.216c-0.009-0.119-0.004-0.247 0.011-0.284 0.032-0.083 0.484-0.095 0.63-0.017zM8.359 31.75v0.226l0.187-0.015c0.181-0.015 0.187-0.021 0.201-0.225l0.016-0.21h-0.404v0.225z"></path>
</symbol>
<symbol id="icon-image-4-Traced-1" viewBox="0 0 24 32">
<path d="M10.256 0.126c-6.276 0.92-10.859 6.708-10.191 12.873 0.303 2.797 1.307 4.957 3.24 6.967 1.707 1.775 3.823 2.98 6.145 3.5 1.26 0.282 4.11 0.285 5.274 0.005 3.582-0.861 6.416-3.068 8.047-6.265 0.301-0.59 0.699-1.56 0.885-2.154 0.307-0.987 0.337-1.262 0.344-3.173 0.009-2.425-0.17-3.258-1.112-5.169-2.286-4.64-7.468-7.342-12.631-6.585zM11.342 1.009c-1.125 1.096-0.987 1.967 0.439 2.79 1.755 1.012 2.027 1.69 1.463 3.642-0.559 1.936 0.186 2.87 2.857 3.581 2.216 0.591 3.071 1.176 3.163 2.167 0.041 0.443 0.032 0.472-0.051 0.168-0.158-0.578-0.365-0.889-0.802-1.206-0.523-0.379-0.908-0.519-2.28-0.828-1.895-0.428-3.024-1.076-3.531-2.027-0.31-0.582-0.255-1.602 0.133-2.489 0.588-1.342 0.376-2.049-0.8-2.667-1.049-0.551-1.461-0.898-1.552-1.304-0.132-0.59 0.051-1.103 0.605-1.694l0.515-0.55-0.497 0.204c-0.632 0.259-0.786 0.413-1 1.005l-0.174 0.48-0.006-0.496c-0.010-0.868 0.453-1.267 1.488-1.281l0.556-0.008-0.526 0.513zM15.605 0.882c0.867 0.275 2.839 1.207 2.839 1.342 0 0.048-0.217 0.121-0.481 0.163-0.921 0.145-1.532 0.888-1.502 1.827 0.010 0.301 0.038 0.397 0.066 0.221 0.168-1.050 0.43-1.354 1.167-1.354 0.765 0 1.044 0.341 0.973 1.189-0.122 1.444-1.413 2.231-2.86 1.746-0.779-0.261-1.457-0.806-1.619-1.302-0.209-0.638-0.313-0.739-0.855-0.829-0.715-0.119-1.217-0.475-1.388-0.985-0.179-0.534-0.079-1.188 0.221-1.446 0.301-0.259 0.788-0.496 0.864-0.421 0.035 0.035-0.113 0.153-0.329 0.262-0.527 0.269-0.682 0.693-0.449 1.24 0.099 0.234 0.222 0.425 0.273 0.425s0.302-0.228 0.558-0.507c0.389-0.423 0.48-0.628 0.553-1.243l0.087-0.736 0.554 0.082c0.305 0.045 0.903 0.192 1.33 0.328zM9.065 1.142c-0.133 0.287-0.243 0.719-0.244 0.96-0.003 0.583-0.175 0.74-0.625 0.573-0.305-0.113-0.404-0.087-0.749 0.199-0.45 0.373-0.657 0.409-0.873 0.152-0.203-0.241-0.114-0.756 0.122-0.706 0.145 0.031 0.152 0.007 0.033-0.112-0.22-0.221-0.537 0.075-0.537 0.501 0 0.417 0.436 0.986 0.755 0.986 0.13 0 0.434-0.093 0.676-0.206 0.411-0.193 0.454-0.193 0.67 0 0.322 0.287 0.558 0.258 0.88-0.107 0.308-0.349 0.531-0.312 0.429 0.071-0.107 0.403-0.487 0.514-2.151 0.626-1.987 0.134-2.915 0.303-3.631 0.662-1.155 0.579-1.622 1.439-1.627 2.993-0.003 1.090-0.152 1.564-0.456 1.449-0.104-0.039-0.151-0.016-0.108 0.052 0.125 0.199 0.544 0.139 0.672-0.097 0.065-0.12 0.18-0.653 0.255-1.184 0.266-1.879 0.863-2.708 2.135-2.963l0.437-0.087-0.576 0.366c-0.797 0.507-1.148 1.242-1.141 2.386 0.010 1.587 0.9 2.687 2.25 2.782 0.595 0.042 0.775 0.005 1.061-0.217 0.189-0.147 0.344-0.328 0.344-0.403s-0.144-0.003-0.319 0.16c-0.637 0.589-1.636 0.295-2.115-0.622-0.437-0.837-0.317-2.145 0.276-2.992 0.742-1.060 1.092-0.892 1.973 0.947 0.96 2.004 1.164 2.085 1.891 0.755l0.392-0.717 0.083 0.726c0.212 1.847-0.571 4.465-1.463 4.89-0.461 0.22-1.041 0.065-1.161-0.31-0.122-0.379 0.121-0.542 0.533-0.357 0.344 0.154 0.344 0.154 0.109-0.102-0.283-0.308-0.78-0.332-1.093-0.053-0.325 0.29-0.309 1.081 0.027 1.313 0.224 0.154 0.23 0.186 0.052 0.253-0.288 0.109-0.579 0.096-1.305-0.057-0.78-0.165-1.378-0.628-1.378-1.067 0-0.751 0.953-1.065 1.303-0.429 0.176 0.319 0.187 0.323 0.192 0.061 0.012-0.66-0.949-0.993-1.72-0.595-0.392 0.202-1.055 0.87-1.267 1.276-0.124 0.238-0.212 0.269-0.571 0.203-0.347-0.064-0.48-0.023-0.735 0.228l-0.311 0.306-0.088-0.807c-0.468-4.305 2.005-8.842 6.027-11.056 0.614-0.339 2.605-1.135 2.882-1.153 0.014-0.001-0.083 0.234-0.216 0.522zM19.319 2.958c0.138 0.135 0.248 0.343 0.246 0.461-0.004 0.2-0.013 0.2-0.136-0.008-0.073-0.123-0.31-0.331-0.528-0.461-0.355-0.213-0.366-0.237-0.114-0.238 0.155-0 0.394 0.11 0.531 0.245zM11.256 4.346c0.344 0.169 0.736 0.429 0.872 0.577 0.369 0.402 0.327 1.106-0.096 1.618-1.271 1.538-1.309 1.901-0.337 3.271 0.472 0.666 0.675 1.077 0.719 1.459 0.059 0.51 0.033 0.559-0.611 1.186-0.37 0.36-1.533 1.227-2.587 1.927-2.398 1.594-3.298 2.329-3.719 3.036-0.565 0.949-0.346 1.419 1.071 2.298l0.687 0.426v-1.24c0-1.138 0.030-1.293 0.362-1.884 0.303-0.538 0.983-1.346 0.806-0.957-0.031 0.068-0.157 0.342-0.281 0.61-0.747 1.619-0.468 3.615 0.719 5.144 0.25 0.321 0.416 0.585 0.37 0.585s-0.539-0.458-1.093-1.016c-0.603-0.608-1.372-1.228-1.914-1.544-0.959-0.558-1.282-0.967-1.282-1.623 0-1.018 0.947-1.962 3.988-3.976 2.179-1.443 3.076-2.204 3.208-2.721 0.090-0.355-0.139-0.845-0.862-1.843-0.791-1.092-0.782-2.113 0.026-3.12 0.935-1.164 0.951-1.475 0.1-1.896-0.687-0.339-1.335-0.823-1.335-0.996 0-0.076 0.127-0.024 0.281 0.116s0.563 0.393 0.906 0.562zM20.355 4.313c1.087 0.842-0.128 2.519-2.085 2.88l-0.486 0.090 0.458 0.371c0.542 0.44 0.832 0.944 0.816 1.42-0.011 0.327-0.018 0.322-0.135-0.086-0.194-0.677-0.815-1.217-2.073-1.802-1.213-0.565-1.477-0.743-0.687-0.465 1.092 0.383 2.476 0.045 3.481-0.85 0.609-0.543 0.748-0.991 0.426-1.373-0.202-0.239-0.675-0.238-0.878 0.003-0.125 0.149-0.127 0.257-0.009 0.513 0.134 0.289 0.129 0.307-0.044 0.166-0.281-0.23-0.239-0.699 0.083-0.922 0.376-0.259 0.75-0.241 1.133 0.056zM9.996 4.429c0.66 0.151 1.126 0.513 1.175 0.913 0.029 0.237-0.12 0.538-0.532 1.078-0.315 0.412-0.607 0.885-0.649 1.051-0.131 0.515 0.025 1.295 0.449 2.245 0.733 1.643 0.391 2.817-1.034 3.546-0.525 0.268-0.821 0.333-1.551 0.337-0.799 0.004-0.935-0.029-1.188-0.295-0.157-0.165-0.192-0.232-0.078-0.149 0.709 0.521 1.811 0.366 2.666-0.374 1.125-0.975 1.339-1.946 0.76-3.457-0.341-0.89-0.411-1.782-0.174-2.221 0.080-0.148 0.367-0.559 0.639-0.913 0.812-1.061 0.453-1.502-1.411-1.731-0.929-0.115-0.931-0.115-0.248-0.128 0.378-0.007 0.908 0.037 1.178 0.099zM8.991 5.142c-0.188 0.781-0.677 2.205-0.826 2.404-0.143 0.192-0.244 0.092-0.941-0.931-0.43-0.63-0.781-1.237-0.781-1.348 0-0.251 0.741-0.431 1.846-0.45l0.783-0.013-0.082 0.339zM21.32 6.033c-0.087 0.206-0.466 0.652-0.843 0.991-0.779 0.701-0.77 0.761 0.193 1.316 0.59 0.34 1.593 0.448 2.087 0.223 0.223-0.101 0.231-0.091 0.079 0.093-0.566 0.685-2.064 0.467-3.093-0.451l-0.601-0.535 0.495-0.231c0.601-0.28 1.531-1.194 1.636-1.608 0.042-0.165 0.106-0.273 0.141-0.238s-0.007 0.232-0.094 0.439zM22.567 6.808c0.001 0.053-0.107 0.039-0.24-0.031-0.288-0.152-0.383-0.16-0.383-0.034 0 0.052 0.126 0.149 0.281 0.215 0.17 0.073 0.297 0.251 0.32 0.448 0.075 0.637-0.97 0.972-1.476 0.473-0.32-0.315-0.319-0.327 0.125-0.985 0.206-0.305 0.437-0.74 0.514-0.968l0.14-0.415 0.358 0.599c0.197 0.33 0.359 0.643 0.361 0.696zM4.655 5.885c-0.386 0.419-0.62 1.184-0.63 2.054-0.011 0.947-0.173 0.663-0.195-0.339-0.017-0.828 0.498-1.934 0.901-1.934 0.069 0 0.034 0.099-0.077 0.22zM16.424 7.523c0.295 0.017-0.343 0.206-0.748 0.221-0.274 0.010-0.365-0.073-0.531-0.482-0.306-0.753-0.254-0.783 0.435-0.247 0.35 0.272 0.73 0.501 0.844 0.507zM14.575 7.911c0.307 0.829 0.39 0.851 1.518 0.4 0.423-0.169 0.931-0.308 1.128-0.308 0.467 0 0.918 0.449 1.093 1.089 0.253 0.925-0.166 1.586-0.639 1.010-0.178-0.216-0.231-0.235-0.231-0.082 0 0.272 0.425 0.667 0.823 0.765 0.724 0.179 1.678-0.726 1.678-1.592v-0.296l0.584 0.291c0.418 0.208 0.794 0.291 1.322 0.291 0.649 0 0.783-0.043 1.103-0.359 0.201-0.197 0.388-0.321 0.417-0.275 0.065 0.103 0.277 1.329 0.381 2.203 0.077 0.639 0.075 0.644-0.212 0.515-0.451-0.203-0.946 0.045-1.177 0.59-0.171 0.402-0.176 0.648-0.043 1.939 0.083 0.813 0.132 1.783 0.108 2.156l-0.045 0.677-0.221-0.861c-0.72-2.81-2.248-4.427-5.182-5.483-2.715-0.978-3.233-1.381-3.209-2.495 0.007-0.35 0.084-0.803 0.17-1.006 0.179-0.422 0.166-0.439 0.635 0.831zM13.077 10.619c0.44 0.598 0.487 1.311 0.126 1.895-0.132 0.213-0.681 0.751-1.221 1.196-1.153 0.95-1.76 1.696-2.293 2.819-0.86 1.808-0.542 4.094 0.774 5.569 0.926 1.039 2.606 1.305 2.606 0.413 0-0.263-0.436-0.325-0.55-0.077-0.039 0.085-0.057 0.043-0.040-0.092 0.035-0.29 0.515-0.399 0.785-0.179 0.289 0.236 0.213 0.689-0.163 0.982-0.283 0.22-0.45 0.255-0.942 0.199-2.135-0.246-3.93-2.819-3.67-5.263 0.181-1.707 0.979-2.929 2.847-4.361 1.549-1.187 1.906-1.641 1.818-2.31-0.035-0.259-0.213-0.694-0.397-0.968-0.423-0.629-0.169-0.489 0.322 0.177zM23.676 12.118c0.025 0.131-0.059 0.318-0.186 0.417-0.205 0.158-0.207 0.17-0.013 0.104 0.178-0.060 0.219-0.002 0.219 0.312 0 0.618-0.271 1.975-0.371 1.863-0.139-0.155-0.427-2.569-0.335-2.806 0.109-0.281 0.628-0.197 0.688 0.11zM17.053 13.357c1.249 0.509 1.698 0.859 1.809 1.406 0.173 0.853-0.523 1.838-1.489 2.105-0.453 0.125-0.646 0.119-1.113-0.032-0.642-0.208-0.702-0.141-0.251 0.277 0.454 0.42 1.58 0.489 2.277 0.138 1.137-0.571 1.713-1.745 1.64-3.34-0.043-0.937-0.037-0.961 0.187-0.761 0.609 0.543 1.084 1.816 1.269 3.407 0.121 1.033-0.003 0.813-0.303-0.538-0.14-0.631-0.394-1.432-0.565-1.781l-0.311-0.635 0.089 0.492c0.255 1.406-0.019 2.422-0.869 3.224-0.817 0.771-2.109 1.019-3.039 0.585-0.522-0.244-0.777-0.569-0.892-1.138l-0.080-0.393 0.531 0.185c1.038 0.361 1.868 0.114 2.376-0.707 0.593-0.958 0.171-1.666-1.332-2.231-0.879-0.33-1.634-0.901-1.936-1.466-0.083-0.155 0.071-0.054 0.355 0.231 0.353 0.356 0.838 0.643 1.645 0.972zM14.981 13.123c0.277 0.304 0.887 0.731 1.467 1.029 1.369 0.701 1.576 1.212 0.703 1.736-0.479 0.287-0.932 0.304-1.305 0.047-0.347-0.239-0.355-0.563-0.021-0.861 0.218-0.194 0.296-0.205 0.512-0.072 0.369 0.227 0.436 0.074 0.071-0.161-0.848-0.547-1.819 0.843-1.463 2.093 0.596 2.098 3.567 2.58 5.125 0.833 0.213-0.24 0.423-0.401 0.467-0.358s0.078 0.423 0.078 0.846c0 0.615-0.072 0.9-0.361 1.423-0.413 0.747-0.819 1.003-1.589 1.003-0.657 0-1.126-0.288-1.072-0.658 0.032-0.224 0.115-0.262 0.534-0.249l0.496 0.017-0.291-0.232c-0.357-0.284-0.862-0.297-1.247-0.032-0.234 0.162-0.279 0.285-0.237 0.646 0.029 0.246 0.077 0.528 0.106 0.627 0.041 0.141-0.148 0.201-0.869 0.275-0.815 0.084-0.962 0.066-1.274-0.153-0.489-0.342-0.977-1.387-1.185-2.535-0.234-1.291-0.232-3.611 0.004-4.475 0.101-0.372 0.185-0.811 0.186-0.975s0.099-0.405 0.219-0.535c0.207-0.225 0.224-0.226 0.344-0.018 0.069 0.121 0.34 0.453 0.601 0.739zM3.378 13.415c0.118 0.128 0.476 0.361 0.796 0.517 0.515 0.251 0.764 0.284 2.173 0.285 1.666 0.001 1.652 0.13-0.029 0.265-1.13 0.090-2.193-0.104-2.803-0.511l-0.441-0.294-0.143 0.517c-0.153 0.554-0.079 2.055 0.125 2.559l0.12 0.297 0.008-0.293c0.014-0.541 0.301-1.265 0.644-1.626 0.596-0.629 1.615-0.4 1.808 0.405 0.062 0.257 0.007 0.404-0.239 0.646-0.355 0.35-0.556 0.387-0.871 0.16-0.185-0.133-0.15-0.154 0.257-0.154 0.453 0 0.471-0.017 0.471-0.417 0-0.559-0.312-0.76-0.783-0.503-0.809 0.442-1.051 2.073-0.483 3.259 0.343 0.716 0.627 0.993 1.599 1.557 0.663 0.385 3.097 2.566 2.864 2.566-0.058 0-0.577-0.419-1.152-0.932s-1.439-1.135-1.92-1.385c-1.394-0.721-2.346-1.835-2.936-3.433-0.406-1.101-0.33-2.734 0.177-3.789l0.355-0.738 0.093 0.405c0.051 0.223 0.189 0.51 0.307 0.638zM1.311 13.898c0.070 0.128 0.183 0.727 0.253 1.33 0.143 1.239 0.458 2.241 1.007 3.198 0.206 0.359 0.354 0.653 0.329 0.653-0.098 0-0.956-1.359-1.369-2.167-0.238-0.467-0.549-1.227-0.69-1.691-0.247-0.813-0.248-0.841-0.022-0.783 0.197 0.051 0.212 0.025 0.097-0.156-0.148-0.234-0.059-0.618 0.144-0.618 0.069 0 0.181 0.105 0.251 0.233zM12.347 14.805c-0.224 0.923-0.166 1.382 0.345 2.736 0.277 0.733 0.299 1.695 0.057 2.493-0.070 0.23-0.022 0.3 0.277 0.402 0.199 0.068 0.427 0.228 0.508 0.355 0.141 0.222 0.12 0.225-0.503 0.078-3.385-0.797-3.88-3.061-1.328-6.077 0.42-0.496 0.782-0.883 0.805-0.861s-0.049 0.415-0.161 0.873zM17.64 20.664c0.188 0.146 0.565 0.3 0.839 0.343l0.498 0.078-0.298 0.228c-0.851 0.653-2.853 1.539-3.938 1.742-0.384 0.072-0.39 0.066-0.377-0.405 0.031-1.179-1.602-1.651-2.134-0.617-0.12 0.234-0.158 0.255-0.16 0.087-0.005-0.617 1.154-1.118 1.89-0.818 0.429 0.175 0.857 0.767 0.858 1.186 0.001 0.268 0.005 0.269 0.656 0.079 1.127-0.33 3.118-1.395 2.606-1.395-0.261 0-1.012-0.768-1.004-1.028l0.008-0.264 0.107 0.26c0.059 0.143 0.261 0.379 0.449 0.525zM5.307 27.366c-0.303 0.157-0.72 0.522-0.926 0.81-0.328 0.459-0.375 0.63-0.375 1.365 0 0.737 0.046 0.905 0.38 1.373 0.529 0.742 1.189 1.084 2.093 1.087 2.372 0.006 3.548-2.709 1.834-4.234-0.631-0.561-0.959-0.687-1.795-0.687-0.45 0-0.835 0.091-1.211 0.286zM8.014 27.7c0.486 0.447 0.68 0.895 0.68 1.569 0 0.748-0.398 1.528-1.038 2.039-0.587 0.467-1.685 0.595-2.323 0.271-1.19-0.606-1.284-2.491-0.176-3.53 0.701-0.658 0.893-0.734 1.751-0.69 0.619 0.031 0.844 0.101 1.106 0.342zM9.443 29.602c0 2.086 0.018 2.277 0.219 2.277s0.219-0.186 0.219-2.185v-2.185l0.359-0.040c0.795-0.090 1.329 0.251 1.329 0.849 0 0.442-0.392 0.853-0.813 0.853-0.172 0-0.313 0.042-0.313 0.093s0.323 0.569 0.719 1.15c0.395 0.581 0.776 1.155 0.847 1.275s0.228 0.198 0.349 0.173c0.182-0.037 0.063-0.27-0.667-1.306-0.566-0.804-0.821-1.262-0.703-1.262 0.102 0 0.358-0.143 0.57-0.319 0.509-0.422 0.533-1.025 0.055-1.395-0.265-0.206-0.508-0.255-1.25-0.255h-0.921v2.277zM12.819 29.602c0 1.942 0.028 2.277 0.187 2.277s0.187-0.335 0.187-2.277-0.027-2.277-0.187-2.277-0.187 0.335-0.187 2.277zM14.069 29.602v2.277h0.642c0.893 0 1.569-0.227 1.928-0.646 0.572-0.67 0.292-1.538-0.594-1.842l-0.367-0.126 0.38-0.227c0.209-0.125 0.415-0.364 0.457-0.53 0.198-0.775-0.362-1.182-1.627-1.182h-0.819v2.277zM17.319 29.602v2.277h1.375c0.756 0 1.375-0.048 1.375-0.107s-0.385-0.079-0.855-0.046c-1.314 0.093-1.395 0.014-1.395-1.343v-1.118l0.75 0.054c0.413 0.029 0.75 0.008 0.75-0.047s-0.338-0.1-0.75-0.1h-0.75v-1.75l0.938 0.047c0.515 0.026 0.937 0.004 0.937-0.048s-0.534-0.095-1.187-0.095h-1.188v2.277zM15.791 27.64c0.194 0.134 0.278 0.317 0.278 0.606 0 0.543-0.471 0.925-1.142 0.925h-0.483v-0.779c0-0.429 0.038-0.817 0.083-0.862 0.157-0.154 0.986-0.082 1.264 0.11zM15.944 29.577c0.464 0.231 0.644 0.685 0.49 1.235-0.17 0.607-0.564 0.845-1.323 0.797l-0.605-0.038-0.036-1.077-0.036-1.077 0.599 0.002c0.329 0.001 0.739 0.072 0.911 0.157z"></path>
</symbol>
<symbol id="icon-image-5-Traced-1" viewBox="0 0 62 32">
<path d="M28.19 0.075c-0.699 0.114-1.93 0.507-2.465 0.786l-0.345 0.18 0.856 0.050c2.090 0.121 3.967 0.715 5.499 1.74l0.534 0.358 1.305 0.027c1.124 0.023 1.395 0.055 1.959 0.227 0.36 0.11 0.667 0.212 0.681 0.227s-0.657 0.027-1.493 0.027-1.547 0.027-1.58 0.059c-0.033 0.033 0.097 0.188 0.288 0.346 0.667 0.549 1.796 1.743 2.337 2.471 0.946 1.273 1.62 2.599 1.952 3.834 0.075 0.281 0.161 0.539 0.19 0.573s0.117-0.248 0.193-0.628c0.18-0.894 0.184-2.345 0.008-3.271-0.653-3.441-3.347-6.198-6.769-6.927-0.773-0.165-2.378-0.205-3.15-0.078zM25.062 1.599c-0.359 0.396-0.985 2.132-1.158 3.213-0.121 0.756-0.098 2.466 0.044 3.278 0.175 1.004 0.595 2.196 1.152 3.271 0.556 1.074 0.706 1.258 0.613 0.753-0.153-0.826-0.173-2.138-0.044-3.013 0.406-2.76 1.899-4.639 4.295-5.405 0.238-0.076 0.461-0.165 0.496-0.197 0.101-0.092-0.921-0.778-1.886-1.267-1.002-0.507-1.981-0.775-2.835-0.775-0.428 0-0.576 0.031-0.676 0.141zM23.823 2.117c-1.304 1.121-2.299 2.748-2.751 4.502-0.207 0.803-0.284 2.376-0.158 3.236 0.353 2.412 1.646 4.543 3.581 5.907 0.491 0.346 1.53 0.925 1.66 0.925 0.027 0-0.105-0.18-0.293-0.399-1.207-1.409-2.23-3.136-2.694-4.547-0.993-3.022-0.664-6.442 0.904-9.4 0.212-0.399 0.374-0.726 0.36-0.726s-0.287 0.226-0.609 0.502zM30.828 4.43c-0.743 0.237-1.586 0.733-2.147 1.26-0.616 0.579-1.079 1.426-1.241 2.268-0.138 0.72-0.048 2.144 0.199 3.142 0.386 1.558 1.366 3.73 2.431 5.389l0.504 0.785 0.343-0.022c0.189-0.012 0.591-0.089 0.894-0.171 1.41-0.383 2.637-1.076 3.748-2.115l0.705-0.66-0.049-0.518c-0.308-3.268-1.387-5.802-3.543-8.319-0.724-0.846-1.105-1.19-1.307-1.182-0.058 0.002-0.3 0.066-0.539 0.142zM4.481 25.806c-1.536 2.122-3.172 4.382-3.637 5.022l-0.845 1.164h1.091l2.879-4.003h3.261l0.042 3.964 0.985 0.047-0.021-5.008-0.020-5.008-0.944-0.036-2.792 3.858zM49.154 26.071c0 2.642-0.027 4.109-0.076 4.079-0.042-0.026-1.619-1.864-3.505-4.086l-3.429-4.039h-0.854v9.89h1.021l0.020-4.094 0.021-4.094 1.23 1.445c0.676 0.795 2.244 2.637 3.483 4.094l2.253 2.649h0.884l-0.051-0.883c-0.028-0.486-0.051-2.729-0.051-4.985l-0.001-4.101h-0.944v4.126zM51.513 26.929v4.985h1.022v-3.925h3.272l2.823 3.915 0.537 0.005c0.295 0.003 0.526-0.026 0.511-0.065s-1.637-2.28-3.605-4.981l-3.578-4.912-0.983-0.007v4.985zM9.593 27.008v4.985l6.253-0.006 0.275-0.368c0.151-0.202 0.287-0.395 0.301-0.429s-1.286-0.060-2.89-0.060h-2.917v-9.106h-1.022v4.985zM14.447 22.414c-0.161 0.215-0.292 0.409-0.292 0.432s0.867 0.041 1.927 0.041h1.927v9.113l0.983-0.047-0.032-4.533-0.032-4.533h3.373l0.292-0.391c0.161-0.215 0.292-0.409 0.292-0.432s-1.833-0.041-4.073-0.041h-4.073l-0.292 0.391zM23.924 25.183c0.011 1.738 0.031 3.963 0.044 4.945l0.024 1.786h6.507l0.553-0.746-6.122-0.041v-3.609h5.314l0.292-0.391c0.161-0.215 0.292-0.409 0.292-0.432s-1.327-0.041-2.949-0.041h-2.949v-3.767h5.393l0.292-0.391c0.161-0.215 0.292-0.409 0.292-0.432s-1.575-0.041-3.501-0.041h-3.502l0.020 3.16zM32.402 26.964v4.95h1.022v-4.409l1.278 0.027c1.496 0.032 1.603 0.069 2.147 0.754 0.196 0.247 0.807 1.164 1.356 2.038l0.999 1.59h1.159l-0.116-0.176c-0.064-0.097-0.62-0.963-1.237-1.925-0.719-1.122-1.275-1.898-1.55-2.167l-0.429-0.418 0.405-0.048c0.898-0.106 1.679-0.676 2.101-1.532 0.186-0.379 0.218-0.539 0.214-1.080-0.004-0.528-0.041-0.71-0.221-1.077-0.264-0.54-0.783-1.010-1.375-1.247-0.426-0.171-0.554-0.179-3.098-0.204l-2.655-0.025v4.95zM37.87 23.123c0.386 0.193 0.613 0.368 0.766 0.589 0.265 0.382 0.356 0.986 0.214 1.415-0.139 0.421-0.658 0.951-1.215 1.241l-0.475 0.248-3.736 0.049v-3.871l3.897 0.053 0.549 0.275zM53.833 25.255c0.692 0.955 1.27 1.767 1.285 1.804s-0.561 0.067-1.278 0.067h-1.304l-0-0.922c-0.003-0.644-0.022-1.275-0.055-1.902l0.004 0.096c-0.029-0.511-0.021-0.883 0.020-0.882 0.039 0.001 0.637 0.783 1.329 1.738zM7.234 25.36v1.766h-1.298c-0.714 0-1.298-0.021-1.298-0.046 0-0.059 2.519-3.486 2.563-3.486 0.018 0 0.032 0.795 0.032 1.766zM60.585 30.26c-0.284 0.173-0.458 0.598-0.384 0.937 0.027 0.123 0.156 0.326 0.287 0.451 0.197 0.189 0.304 0.227 0.631 0.227 0.355 0 0.421-0.029 0.663-0.293 0.392-0.428 0.33-1.021-0.141-1.351-0.24-0.168-0.757-0.153-1.056 0.029zM61.513 30.35c0.248 0.133 0.389 0.548 0.298 0.878-0.146 0.529-0.732 0.692-1.169 0.326-0.203-0.171-0.242-0.259-0.242-0.553 0-0.267 0.046-0.396 0.193-0.543 0.21-0.21 0.635-0.26 0.919-0.108zM60.794 31.006c0 0.291 0.034 0.515 0.078 0.515s0.079-0.106 0.079-0.236c0-0.129 0.034-0.235 0.074-0.235s0.137 0.106 0.214 0.235c0.076 0.13 0.167 0.236 0.201 0.236 0.094 0 0.074-0.105-0.056-0.289-0.104-0.148-0.103-0.172 0.006-0.213 0.079-0.030 0.113-0.123 0.097-0.263-0.022-0.194-0.060-0.219-0.359-0.24l-0.334-0.024v0.515zM61.319 30.705c0.049 0.127-0.089 0.263-0.27 0.265-0.054 0.001-0.098-0.087-0.098-0.195 0-0.145 0.042-0.196 0.16-0.196 0.088 0 0.181 0.056 0.208 0.126z"></path>
</symbol>
<symbol id="icon-image-6-Traced-1" viewBox="0 0 33 32">
<path d="M16.088 0.039c0 0.021 0.020 0.056 0.044 0.078 0.039 0.035 0.093 0.041 0.428 0.054 0.211 0.008 0.436 0.024 0.499 0.035s0.175 0.021 0.248 0.022l0.132 0.001v-0.203l-0.111-0.013c-0.061-0.007-0.365-0.014-0.676-0.014-0.535 0-0.565 0.002-0.565 0.039zM14.255 0.074c-0.017 0.017-0.041 0.029-0.067 0.030l-0 0c-0.054 0-0.073 0.070-0.039 0.14 0.023 0.047 0.040 0.056 0.091 0.051 0.034-0.004 0.153-0.011 0.263-0.017s0.209-0.019 0.22-0.030 0.094-0.020 0.183-0.020c0.184 0 0.229-0.025 0.229-0.127v-0.061l-0.428 0.001c-0.348 0.001-0.433 0.007-0.455 0.031zM13.596 0.173c0 0.015 0.031 0.057 0.070 0.094 0.053 0.051 0.089 0.067 0.148 0.067h0.078v-0.188h-0.148c-0.107 0-0.148 0.008-0.148 0.027zM12.437 0.407c-0.193 0.043-0.376 0.105-0.68 0.233-0.245 0.103-0.49 0.171-0.842 0.236-0.104 0.023-0.196 0.056-0.282 0.098l0.007-0.003c-0.078 0.039-0.169 0.074-0.264 0.101l-0.011 0.003c-0.105 0.029-0.197 0.066-0.283 0.11l0.008-0.004c-0.076 0.040-0.299 0.153-0.496 0.252-0.717 0.36-1.32 0.716-1.887 1.115-0.251 0.177-0.34 0.228-0.392 0.228-0.126 0-0.578 0.326-1.015 0.731-0.146 0.135-0.305 0.273-0.467 0.407l-0.019 0.015c-0.129 0.105-0.249 0.219-0.271 0.26-0.029 0.055-0.072 0.088-0.182 0.138-0.136 0.062-0.149 0.075-0.223 0.21-0.044 0.079-0.104 0.158-0.135 0.175-0.033 0.018-0.073 0.072-0.095 0.128s-0.105 0.165-0.2 0.265c-0.088 0.093-0.212 0.252-0.276 0.353-0.131 0.207-0.249 0.307-0.41 0.348l-0.104 0.027-0.144 0.292c-0.092 0.187-0.194 0.356-0.283 0.47-0.129 0.164-0.203 0.281-0.452 0.71-0.212 0.364-0.605 0.799-0.908 1.001-0.091 0.061-0.141 0.113-0.177 0.184-0.072 0.145-0.134 0.315-0.177 0.491l-0.004 0.017c-0.024 0.117-0.026 0.119-0.194 0.228-0.133 0.086-0.18 0.13-0.218 0.205-0.114 0.223-0.316 0.753-0.433 1.138l-0.082 0.27 0.083 0.149c0.046 0.082 0.083 0.164 0.083 0.181 0 0.049-0.198 0.315-0.281 0.378-0.062 0.047-0.079 0.078-0.1 0.177-0.014 0.066-0.066 0.303-0.116 0.527-0.090 0.358-0.199 0.909-0.293 1.466l-0.022 0.162c-0.233 1.421-0.251 1.938-0.116 3.214 0.415 3.91 1.599 6.913 3.669 9.308 0.587 0.679 1.936 1.945 2.818 2.645 0.486 0.387 1.031 0.754 1.604 1.077l0.063 0.032c0.143 0.079 0.305 0.173 0.362 0.208 0.083 0.052 0.125 0.065 0.218 0.065 0.107 0 0.122-0.007 0.199-0.084 0.049-0.049 0.104-0.084 0.132-0.084 0.073 0 0.652 0.244 0.692 0.291 0.019 0.023 0.041 0.096 0.049 0.162 0.034 0.271 0.113 0.345 0.491 0.467 0.201 0.065 0.316 0.089 0.455 0.097 0.149 0.009 0.19 0.018 0.206 0.048 0.040 0.073 0.184 0.104 0.58 0.123 0.304 0.015 0.437 0.032 0.665 0.084 0.38 0.087 0.503 0.117 0.729 0.177 0.133 0.036 0.247 0.051 0.383 0.052 0.122 0.001 0.221 0.013 0.27 0.033 0.042 0.017 0.193 0.061 0.335 0.096 0.269 0.067 0.699 0.109 1.103 0.108 0.221-0.001 0.396-0.053 0.409-0.121 0.022-0.12 0.086-0.12 0.204 0.001 0.089 0.091 0.097 0.094 0.218 0.094 0.113 0 0.131-0.006 0.178-0.062 0.029-0.034 0.059-0.101 0.067-0.148l0.015-0.086 0.098 0.013c0.271 0.036 0.341 0.037 0.354 0.003 0.011-0.029 0.076-0.033 0.513-0.033h0.5l0.188 0.191 0.159-0.014c0.103-0.009 0.223-0.014 0.344-0.014 0.084 0 0.168 0.002 0.251 0.007l-0.012-0.001c0.101 0.006 0.139-0.001 0.17-0.029 0.033-0.030 0.081-0.036 0.252-0.036 0.198 0 0.215-0.004 0.261-0.052 0.044-0.047 0.066-0.052 0.212-0.052 0.174 0 0.43-0.055 0.563-0.121 0.044-0.022 0.146-0.046 0.225-0.053 0.175-0.015 0.265-0.062 0.316-0.166 0.039-0.077 0.040-0.078 0.169-0.078 0.105 0 0.171-0.017 0.342-0.087 0.116-0.048 0.242-0.114 0.28-0.146 0.101-0.086 0.168-0.115 0.393-0.173 0.2-0.052 0.29-0.087 0.393-0.158 0.043-0.024 0.092-0.042 0.145-0.050l0.003-0c0.052-0.008 0.143-0.041 0.201-0.073 0.151-0.084 0.416-0.196 0.622-0.264 0.116-0.040 0.217-0.087 0.31-0.145l-0.007 0.004c0.133-0.086 0.286-0.161 0.448-0.218l0.015-0.005c0.044-0.014 0.089-0.043 0.101-0.065 0.025-0.046 0.127-0.103 0.184-0.103 0.022 0 0.086-0.047 0.142-0.104 0.081-0.081 0.135-0.113 0.242-0.148 0.23-0.073 0.353-0.14 0.398-0.214 0.052-0.087 0.099-0.122 0.469-0.352 0.179-0.11 0.315-0.199 0.448-0.291l-0.033 0.021c0.060-0.043 0.133-0.085 0.164-0.093s0.055-0.020 0.055-0.029c0-0.038 0.161-0.169 0.24-0.195 0.106-0.035 0.211-0.162 0.325-0.395 0.068-0.139 0.090-0.166 0.159-0.193 0.044-0.017 0.093-0.032 0.109-0.032s0.075-0.063 0.13-0.141c0.118-0.165 0.122-0.169 0.221-0.185 0.063-0.011 0.083-0.028 0.127-0.11 0.119-0.224 0.461-0.489 0.734-0.569 0.079-0.023 0.111-0.053 0.248-0.232 0.169-0.221 0.183-0.268 0.127-0.403-0.029-0.069-0.028-0.073 0.027-0.111 0.102-0.067 0.219-0.124 0.343-0.167l0.011-0.003c0.055-0.016 0.099-0.047 0.121-0.082 0.019-0.031 0.077-0.098 0.13-0.149 0.089-0.085 0.096-0.1 0.096-0.198 0-0.093 0.015-0.129 0.121-0.296 0.118-0.184 0.124-0.19 0.216-0.204 0.069-0.011 0.115-0.035 0.174-0.094l0.080-0.079v-0.201c0-0.122 0.011-0.228 0.028-0.268 0.055-0.13 0.196-0.279 0.318-0.339 0.092-0.051 0.171-0.108 0.242-0.175l-0.001 0.001c0.102-0.097 0.136-0.148 0.191-0.289l0.068-0.171-0.046-0.090c-0.032-0.061-0.065-0.112-0.101-0.161l0.002 0.003-0.052-0.068 0.048-0.13c0.068-0.186 0.16-0.361 0.268-0.511l0.094-0.13h0.186c0.156 0 0.195-0.007 0.241-0.043 0.063-0.049 0.098-0.155 0.098-0.297 0-0.055 0.014-0.133 0.032-0.175s0.032-0.138 0.032-0.219c0-0.177 0.050-0.287 0.169-0.368 0.046-0.031 0.083-0.070 0.084-0.086 0.002-0.058 0.154-0.684 0.227-0.93 0.041-0.138 0.082-0.302 0.092-0.365s0.046-0.195 0.081-0.292c0.091-0.252 0.13-0.499 0.146-0.918 0.013-0.325 0.020-0.372 0.059-0.428 0.179-0.251 0.226-0.461 0.207-0.927-0.011-0.274-0.008-0.365 0.017-0.439 0.023-0.069 0.029-0.178 0.025-0.407-0.001-0.027-0.001-0.058-0.001-0.090 0-0.145 0.006-0.288 0.019-0.429l-0.001 0.018c0.023-0.196 0.005-0.695-0.056-1.565-0.031-0.439-0.045-0.525-0.129-0.788-0.028-0.089-0.056-0.225-0.062-0.302-0.012-0.165-0.156-0.855-0.232-1.114-0.056-0.188-0.223-0.599-0.276-0.679-0.017-0.026-0.031-0.085-0.031-0.132 0-0.091-0.023-0.151-0.087-0.22-0.022-0.024-0.068-0.141-0.102-0.261-0.049-0.168-0.095-0.3-0.147-0.429l0.011 0.032c-0.143-0.348-0.647-1.305-1.038-1.971-0.315-0.536-0.559-0.97-0.701-1.252-0.175-0.345-0.275-0.512-0.401-0.668-0.067-0.088-0.131-0.186-0.187-0.29l-0.006-0.012c-0.217-0.416-0.45-0.727-0.628-0.839-0.162-0.101-0.253-0.203-0.358-0.399-0.090-0.17-0.225-0.309-0.37-0.381-0.055-0.028-0.114-0.069-0.13-0.093s-0.091-0.081-0.165-0.128c-0.074-0.047-0.305-0.217-0.512-0.378-0.367-0.285-1.317-0.929-1.519-1.031-0.055-0.028-0.239-0.102-0.409-0.165l-0.308-0.114h-1.164l-0.242 0.127c-0.447 0.234-0.613 0.348-0.852 0.582-0.347 0.34-0.757 0.908-0.769 1.063-0.003 0.045-0.018 0.104-0.032 0.13-0.033 0.060-0.039 0.133-0.053 0.587-0.009 0.267-0.005 0.382 0.014 0.416 0.014 0.026 0.029 0.153 0.033 0.283 0.009 0.27 0.059 0.439 0.242 0.821 0.191 0.398 0.348 0.609 0.52 0.697 0.040 0.021 0.069 0.058 0.085 0.111 0.030 0.099 0.142 0.209 0.25 0.246 0.073 0.025 0.087 0.041 0.132 0.158 0.031 0.082 0.081 0.16 0.134 0.21 0.1 0.096 0.356 0.227 0.443 0.227 0.034 0 0.154 0.036 0.266 0.081s0.275 0.098 0.362 0.119c0.114 0.028 0.185 0.060 0.253 0.116 0.109 0.087 0.234 0.153 0.332 0.174 0.074 0.015 0.175 0.117 0.175 0.176 0 0.021 0.067 0.085 0.153 0.149 0.084 0.062 0.481 0.434 0.881 0.826 0.508 0.497 0.751 0.72 0.803 0.739s0.092 0.055 0.137 0.13c0.068 0.111 0.298 0.338 0.366 0.359 0.028 0.009 0.045 0.039 0.054 0.095 0.024 0.149 0.096 0.304 0.215 0.46 0.138 0.183 0.288 0.431 0.338 0.562 0.020 0.052 0.069 0.123 0.11 0.158 0.060 0.051 0.081 0.093 0.114 0.219 0.022 0.085 0.068 0.215 0.103 0.288 0.044 0.093 0.063 0.166 0.063 0.241 0.001 0.134 0.055 0.254 0.156 0.344 0.076 0.068 0.078 0.073 0.076 0.209-0.003 0.186 0.012 0.303 0.045 0.362 0.024 0.042 0.039 0.147 0.068 0.466 0.003 0.035 0.024 0.1 0.046 0.146 0.034 0.070 0.040 0.122 0.036 0.326-0.004 0.171 0.004 0.264 0.025 0.313 0.024 0.057 0.028 0.188 0.021 0.676-0.005 0.351-0.018 0.634-0.031 0.674-0.012 0.038-0.017 0.084-0.010 0.103s0.004 0.105-0.008 0.192c-0.012 0.087-0.036 0.295-0.055 0.461-0.084 0.758-0.364 1.845-0.68 2.64-0.375 0.943-1.187 2.364-1.874 3.278-0.731 0.973-1.701 1.865-2.999 2.757-1.356 0.933-2.829 1.643-4.128 1.989-1.102 0.294-2.48 0.425-3.748 0.357-1.342-0.073-2.147-0.206-2.832-0.471-0.154-0.060-0.277-0.094-0.334-0.094s-0.125-0.019-0.183-0.051c-0.051-0.028-0.187-0.075-0.303-0.105-0.577-0.149-1.087-0.364-1.634-0.687-0.123-0.073-0.273-0.148-0.332-0.167-0.067-0.022-0.117-0.053-0.133-0.083-0.033-0.060-0.129-0.118-0.196-0.118-0.081 0-0.916-0.607-1.537-1.118-0.927-0.763-1.547-1.448-2.18-2.41-0.522-0.794-0.901-1.531-1.321-2.57-0.381-0.94-0.594-1.749-0.741-2.803-0.116-0.832-0.114-1.077 0.020-2.88 0.055-0.741 0.143-1.22 0.368-2.014 0.462-1.627 1.562-3.707 2.595-4.903 0.633-0.733 1.307-1.28 2.364-1.919 0.556-0.336 1.042-0.693 1.487-1.093 0.144-0.129 0.283-0.252 0.309-0.273 0.083-0.067 1.615-0.584 2.694-0.91 0.624-0.188 1.175-0.304 1.71-0.359 0.134-0.014 0.252-0.033 0.263-0.043 0.032-0.028 0.443-0.020 0.698 0.013 0.127 0.017 0.332 0.031 0.454 0.032s0.264 0.010 0.317 0.021c0.052 0.011 0.17 0.025 0.262 0.031s0.182 0.023 0.199 0.036c0.030 0.025 0.087 0.025 0.746 0.009 0.123-0.003 0.171 0.004 0.201 0.030 0.022 0.019 0.075 0.045 0.119 0.059s0.089 0.043 0.101 0.065c0.020 0.036 0.047 0.040 0.241 0.040 0.121 0 0.267-0.011 0.324-0.024 0.127-0.029 0.17-0.019 0.329 0.075 0.112 0.067 0.139 0.074 0.279 0.074 0.085 0 0.161-0.009 0.168-0.021 0.022-0.035 0.128-0.024 0.165 0.017 0.019 0.021 0.045 0.065 0.057 0.099 0.014 0.037 0.065 0.088 0.129 0.129 0.086 0.055 0.128 0.068 0.217 0.068 0.114 0 0.157-0.025 0.167-0.098 0.003-0.021 0.057-0.066 0.12-0.101l0.114-0.063 0.006-0.119c0.005-0.101 0-0.121-0.032-0.131-0.021-0.006-0.073-0.030-0.116-0.052-0.095-0.049-0.191-0.052-0.261-0.007-0.049 0.032-0.055 0.031-0.126-0.031-0.097-0.084-0.217-0.144-0.321-0.161-0.070-0.011-0.108-0.040-0.236-0.178s-0.163-0.165-0.218-0.165c-0.049 0-0.086-0.022-0.152-0.090-0.127-0.131-0.14-0.138-0.324-0.17-0.118-0.023-0.223-0.055-0.322-0.097l0.010 0.004c-0.164-0.073-0.26-0.080-0.477-0.031-0.122 0.027-0.166 0.029-0.252 0.008-0.129-0.031-0.334-0.159-0.409-0.256-0.048-0.062-0.071-0.074-0.163-0.083-0.068-0.007-0.122-0.025-0.149-0.052-0.056-0.056-0.035-0.124 0.045-0.141 0.039-0.010 0.072-0.029 0.098-0.055l-0 0c0.049-0.054 0.027-0.092-0.103-0.175-0.077-0.050-0.1-0.078-0.11-0.136-0.027-0.158-0.113-0.326-0.254-0.492l-0.069-0.082-0.293-0.016c-0.713-0.038-0.837-0.039-1.017-0.013-0.171 0.025-0.276 0.030-0.51 0.019-0.088-0.004-0.299 0.012-0.77 0.057-0.127 0.012-0.218 0.033-0.274 0.063-0.054 0.028-0.118 0.045-0.186 0.045-0.001 0-0.002 0-0.003 0h0c-0.128 0-0.367 0.039-0.424 0.070-0.043 0.018-0.093 0.031-0.145 0.038l-0.003 0-0.233 0.035c-0.070 0.010-0.156 0.033-0.19 0.050-0.082 0.041-0.262 0.078-0.381 0.078-0.063 0-0.136 0.021-0.222 0.064-0.071 0.035-0.225 0.096-0.343 0.135-0.2 0.066-0.228 0.070-0.405 0.059-0.188-0.012-0.191-0.011-0.333 0.063-0.081 0.043-0.173 0.075-0.212 0.075-0.050 0-0.087 0.018-0.132 0.065-0.034 0.036-0.121 0.107-0.194 0.158-0.107 0.076-0.157 0.097-0.27 0.113-0.085 0.012-0.168 0.039-0.217 0.071-0.044 0.028-0.094 0.054-0.147 0.074l-0.006 0.002c-0.041 0.014-0.105 0.056-0.143 0.095-0.073 0.073-0.125 0.085-0.198 0.047-0.042-0.022-0.041-0.024 0.017-0.086 0.077-0.080 0.319-0.242 0.486-0.326 0.071-0.036 0.147-0.087 0.169-0.113s0.070-0.061 0.108-0.077 0.107-0.055 0.153-0.088c0.046-0.033 0.102-0.060 0.124-0.060 0.071 0 0.167-0.102 0.246-0.261l0.076-0.153 0.145-0.046c0.153-0.049 0.176-0.048 0.431 0.012 0.081 0.019 0.214 0.036 0.295 0.038l0.148 0.003 0.006-0.162c0.008-0.2 0.037-0.228 0.231-0.222 0.146 0.004 0.175-0.008 0.175-0.074s-0.046-0.098-0.159-0.111c-0.088-0.010-0.101-0.005-0.168 0.065-0.040 0.041-0.087 0.076-0.105 0.076-0.039 0-0.202-0.063-0.202-0.077 0-0.006 0.030-0.038 0.065-0.071 0.049-0.046 0.086-0.060 0.149-0.060 0.092 0 0.218-0.055 0.28-0.123 0.032-0.035 0.065-0.044 0.162-0.044 0.067 0 0.128-0.009 0.135-0.021s0.034-0.021 0.060-0.021c0.025 0 0.082-0.019 0.125-0.042s0.111-0.042 0.151-0.042c0.104 0 0.19-0.101 0.111-0.132-0.078-0.029-0.31-0.032-0.434-0.004zM13.703 0.471c-0.125 0.033-0.194 0.081-0.178 0.121 0.016 0.042 0.151 0.096 0.241 0.096h0.084v-0.126c0-0.069-0.007-0.124-0.016-0.124s-0.068 0.015-0.131 0.032zM18.142 1.649c-0.040 0.016-0.048 0.035-0.048 0.113 0 0.082 0.008 0.098 0.058 0.124 0.114 0.058 0.225 0.076 0.391 0.062 0.15-0.012 0.164-0.017 0.164-0.058 0-0.055-0.081-0.117-0.26-0.201-0.133-0.062-0.22-0.073-0.305-0.040zM17.392 1.922c-0.024 0.025-0.037 0.073-0.037 0.134v0.094h0.123c0.123 0 0.124 0 0.285 0.146 0.126 0.113 0.177 0.146 0.226 0.146 0.053 0 0.069-0.012 0.095-0.073 0.031-0.073 0.040-0.255 0.018-0.337-0.023-0.084-0.255-0.154-0.505-0.152-0.138 0.001-0.176 0.009-0.206 0.041zM18.199 2.221c0 0.116 0.007 0.139 0.047 0.167 0.069 0.048 0.161 0.040 0.241-0.021 0.058-0.044 0.071-0.067 0.071-0.132 0-0.116-0.047-0.148-0.218-0.148h-0.141v0.134zM18.988 2.306c-0.019 0.050 0.033 0.222 0.089 0.295 0.030 0.040 0.091 0.080 0.151 0.102 0.056 0.020 0.152 0.059 0.214 0.088 0.123 0.057 0.219 0.055 0.312-0.005 0.039-0.025 0.051-0.051 0.051-0.114 0-0.092-0.043-0.147-0.114-0.147-0.116 0-0.403-0.131-0.474-0.216-0.039-0.045-0.21-0.047-0.227-0.002zM13.394 2.642c0.032 0.082 0.011 0.125-0.104 0.212-0.090 0.069-0.134 0.089-0.197 0.089-0.145 0-0.216-0.152-0.108-0.233 0.124-0.093 0.382-0.136 0.408-0.068zM9.363 2.896c-0.052 0.124-0.156 0.18-0.388 0.207-0.097 0.012-0.104 0.009-0.168-0.068-0.072-0.086-0.085-0.133-0.038-0.133 0.016 0 0.052-0.019 0.079-0.041 0.043-0.036 0.083-0.041 0.298-0.041l0.248-0.001-0.033 0.079zM20.98 3.75c-0.027 0.027-0.014 0.186 0.019 0.232 0.028 0.039 0.053 0.047 0.159 0.047h0.125v-0.103c0-0.086-0.009-0.11-0.056-0.146-0.054-0.042-0.215-0.061-0.247-0.030zM20.11 11.416c-0.233 0.024-0.406 0.075-0.633 0.186-0.377 0.184-0.652 0.456-0.834 0.826-0.157 0.319-0.179 0.42-0.178 0.824 0.001 0.321 0.005 0.357 0.060 0.522 0.107 0.318 0.249 0.549 0.469 0.764 0.337 0.329 0.734 0.5 1.211 0.523 0.389 0.019 0.721-0.062 1.065-0.261 0.167-0.096 0.455-0.372 0.575-0.55 0.377-0.561 0.404-1.32 0.067-1.916-0.349-0.617-1.084-0.992-1.801-0.918zM13.238 13.221v1.784h1.478v-0.521h-0.908v-3.048h-0.57v1.785zM10.929 11.473c-0.054 0.087-1.51 3.502-1.497 3.513 0.021 0.020 0.569 0.032 0.59 0.012 0.008-0.008 0.102-0.228 0.207-0.489l0.192-0.474 1.27-0.011 0.207 0.481 0.207 0.48h0.303c0.167 0 0.303-0.004 0.303-0.008s-0.331-0.796-0.736-1.758l-0.737-1.75-0.148-0.006c-0.082-0.004-0.153 0.001-0.16 0.011zM15.286 13.242v1.784h0.491c0.575-0 0.815-0.030 1.090-0.132 0.271-0.1 0.409-0.188 0.614-0.39 0.265-0.261 0.39-0.494 0.47-0.876 0.077-0.369 0.031-0.86-0.113-1.181-0.154-0.347-0.454-0.645-0.811-0.805-0.31-0.139-0.635-0.186-1.293-0.186h-0.448v1.784zM20.604 11.991c0.215 0.050 0.415 0.165 0.596 0.343 0.251 0.246 0.378 0.545 0.378 0.886 0 0.348-0.123 0.636-0.379 0.89-0.259 0.257-0.542 0.374-0.898 0.374-0.362 0-0.638-0.117-0.909-0.385-0.261-0.258-0.369-0.515-0.369-0.877 0-0.217 0.038-0.382 0.13-0.566 0.156-0.314 0.494-0.582 0.837-0.664 0.162-0.039 0.449-0.039 0.615-0.001zM16.433 12.031c0.323 0.057 0.614 0.238 0.78 0.484 0.153 0.228 0.193 0.366 0.194 0.675 0.001 0.319-0.048 0.492-0.205 0.724-0.254 0.375-0.649 0.567-1.172 0.57l-0.174 0.001v-2.484l0.206 0.001c0.113 0 0.28 0.014 0.372 0.030zM11.279 12.996c0.113 0.272 0.202 0.497 0.199 0.501s-0.193 0.004-0.42 0.001l-0.413-0.006 0.204-0.495c0.112-0.273 0.209-0.495 0.215-0.495s0.103 0.223 0.216 0.495zM6.323 16.101c-0.73 0.159-1.262 0.677-1.439 1.399-0.053 0.216-0.049 0.597 0.009 0.829 0.161 0.645 0.655 1.15 1.307 1.336 0.218 0.062 0.721 0.067 0.935 0.009 0.132-0.036 0.562-0.233 0.639-0.293 0.034-0.026 0.037-0.067 0.032-0.42l-0.006-0.391-0.074 0.098c-0.142 0.19-0.432 0.37-0.698 0.435-0.173 0.042-0.498 0.044-0.653 0.003-0.62-0.163-1.047-0.784-0.952-1.388 0.068-0.43 0.306-0.77 0.67-0.954 0.233-0.118 0.339-0.142 0.609-0.141 0.196 0.001 0.254 0.009 0.375 0.055 0.215 0.081 0.366 0.177 0.559 0.359l0.175 0.164-0.010-0.123c-0.006-0.068-0.016-0.244-0.023-0.391l-0.013-0.268-0.125-0.080c-0.17-0.107-0.369-0.189-0.58-0.236l-0.012-0.002c-0.195-0.040-0.548-0.041-0.724-0.002zM9.753 16.101c-0.596 0.118-1.131 0.562-1.351 1.122-0.080 0.2-0.126 0.431-0.126 0.673 0 0.288 0.065 0.56 0.182 0.803l-0.005-0.011c0.182 0.386 0.559 0.741 0.96 0.901 0.263 0.105 0.373 0.123 0.732 0.122 0.31-0.001 0.352-0.006 0.517-0.059 0.611-0.197 1.033-0.615 1.237-1.223 0.055-0.165 0.059-0.201 0.060-0.522 0.001-0.396-0.020-0.496-0.169-0.804-0.258-0.53-0.733-0.893-1.315-1.004-0.189-0.036-0.535-0.035-0.722 0.001zM19.036 16.103c-0.351 0.078-0.628 0.223-0.884 0.466-0.195 0.184-0.305 0.336-0.417 0.574-0.123 0.263-0.159 0.436-0.157 0.764 0.001 0.333 0.034 0.484 0.167 0.764 0.112 0.236 0.212 0.372 0.417 0.564 0.374 0.351 0.815 0.507 1.362 0.482 0.907-0.040 1.625-0.713 1.736-1.626 0.041-0.345-0.019-0.67-0.188-1.009-0.23-0.461-0.605-0.776-1.12-0.94-0.153-0.049-0.223-0.058-0.475-0.064-0.212-0.005-0.337 0.002-0.441 0.025zM12.562 17.896v1.764h0.591v-1.434l0.236-0.014c0.393-0.024 0.601-0.098 0.811-0.29 0.237-0.217 0.337-0.481 0.32-0.85-0.016-0.345-0.133-0.575-0.38-0.743-0.232-0.158-0.451-0.196-1.115-0.196h-0.463v1.764zM15.18 17.894v1.766h0.591v-1.434l0.227-0.013c0.42-0.024 0.666-0.122 0.877-0.348 0.18-0.193 0.268-0.434 0.268-0.731 0.001-0.491-0.247-0.822-0.712-0.952-0.094-0.026-0.252-0.036-0.687-0.044l-0.565-0.010v1.766zM21.874 17.896v1.764h1.499v-0.522h-0.929v-3.005h-0.57v1.764zM25.198 16.155c-0.008 0.013-0.355 0.8-0.772 1.749l-0.757 1.725 0.131 0.013c0.072 0.007 0.212 0.014 0.311 0.015l0.179 0.002 0.193-0.474 0.193-0.474 1.303-0.010 0.403 0.928 0.311 0.006c0.171 0.003 0.311 0.003 0.311 0s-0.336-0.79-0.747-1.749l-0.747-1.743-0.148-0.006c-0.095-0.004-0.154 0.002-0.163 0.017zM10.54 16.681c0.208 0.076 0.362 0.175 0.509 0.328 0.153 0.161 0.274 0.377 0.321 0.576 0.047 0.196 0.031 0.532-0.033 0.712-0.124 0.348-0.435 0.656-0.788 0.779-0.183 0.064-0.545 0.080-0.732 0.033-0.366-0.093-0.654-0.321-0.835-0.661-0.107-0.201-0.144-0.382-0.131-0.635 0.017-0.339 0.128-0.585 0.372-0.826 0.155-0.155 0.348-0.27 0.565-0.331l0.009-0.002c0.217-0.058 0.54-0.047 0.742 0.027zM19.806 16.671c0.4 0.14 0.701 0.428 0.822 0.786 0.162 0.48 0.045 0.968-0.317 1.326-0.241 0.238-0.533 0.356-0.884 0.356-0.375 0-0.65-0.113-0.911-0.373-0.183-0.183-0.277-0.344-0.338-0.578-0.024-0.093-0.039-0.199-0.039-0.308 0-0.412 0.199-0.777 0.506-1.005l0.003-0.002c0.171-0.125 0.261-0.169 0.444-0.218 0.195-0.052 0.535-0.044 0.712 0.018zM13.626 16.705c0.151 0.035 0.22 0.083 0.283 0.195 0.099 0.175 0.079 0.444-0.044 0.582-0.111 0.125-0.206 0.159-0.475 0.17l-0.237 0.009v-0.986l0.174 0c0.096 0 0.23 0.013 0.298 0.029zM16.208 16.698c0.074 0.013 0.165 0.044 0.202 0.069 0.202 0.135 0.242 0.509 0.076 0.709-0.108 0.129-0.205 0.165-0.477 0.176l-0.238 0.009v-0.986h0.151c0.084 0 0.212 0.010 0.285 0.023zM25.553 17.662c0.113 0.267 0.206 0.492 0.206 0.501s-0.19 0.016-0.423 0.016c-0.232 0-0.422-0.007-0.422-0.015 0-0.028 0.41-0.987 0.421-0.987 0.007 0 0.104 0.218 0.217 0.485zM30.92 19.547c0.019 0.075-0.009 0.303-0.044 0.353-0.016 0.023-0.029 0.084-0.029 0.136 0 0.073-0.038 0.181-0.161 0.46-0.022 0.014-0.168 0.354-0.31 0.696l-0.124 0.336c-0.275 0.673-0.51 1.147-0.891 1.799-0.049 0.078-0.118 0.2-0.184 0.323l-0.024 0.049c-0.035 0.071-0.063 0.1-0.104 0.108-0.045 0.009-0.097 0.071-0.254 0.306-0.108 0.162-0.267 0.376-0.352 0.475-0.11 0.131-0.229 0.281-0.342 0.434l-0.018 0.026c-0.113 0.153-0.244 0.307-0.292 0.342-0.067 0.049-0.084 0.073-0.075 0.109 0.009 0.037-0.038 0.092-0.25 0.292-0.285 0.27-0.511 0.487-0.736 0.704l0.042-0.040c-0.254 0.242-0.522 0.481-0.799 0.709l-0.025 0.020c-0.423 0.338-0.773 0.632-1.118 0.932l0.040-0.034c-0.072 0.063-0.141 0.115-0.154 0.115-0.074 0-0.304 0.138-0.418 0.25-0.11 0.109-0.156 0.137-0.345 0.21-0.158 0.064-0.291 0.131-0.417 0.209l0.013-0.007c-0.103 0.064-0.207 0.116-0.232 0.114-0.027-0.002-0.059 0.018-0.079 0.049-0.049 0.075-0.13 0.121-0.242 0.138-0.175 0.027-0.304 0.088-0.42 0.199-0.078 0.074-0.134 0.11-0.187 0.119-0.042 0.007-0.092 0.027-0.113 0.044s-0.092 0.047-0.161 0.065c-0.068 0.017-0.185 0.060-0.259 0.094-0.157 0.072-0.193 0.076-0.193 0.022 0-0.025 0.036-0.060 0.1-0.097 0.055-0.031 0.134-0.083 0.174-0.114s0.136-0.072 0.211-0.091c0.147-0.037 0.248-0.091 0.697-0.371 0.157-0.098 0.502-0.302 0.768-0.454 0.555-0.316 0.926-0.554 1.298-0.83 0.144-0.107 0.303-0.212 0.353-0.234 0.152-0.066 0.282-0.164 0.516-0.387 0.12-0.114 0.247-0.23 0.377-0.344l0.014-0.012c0.093-0.080 0.312-0.281 0.486-0.447s0.417-0.397 0.539-0.512c0.169-0.159 0.24-0.244 0.3-0.355 0.055-0.102 0.107-0.167 0.173-0.215 0.052-0.038 0.135-0.118 0.183-0.177 0.081-0.101 0.208-0.332 0.208-0.38 0-0.012 0.043-0.047 0.095-0.080 0.125-0.078 0.169-0.133 0.35-0.435 0.084-0.14 0.255-0.41 0.379-0.6s0.295-0.458 0.378-0.596c0.084-0.137 0.184-0.279 0.222-0.313 0.083-0.075 0.142-0.185 0.191-0.355 0.020-0.069 0.078-0.197 0.13-0.284 0.111-0.189 0.237-0.47 0.307-0.686 0.028-0.086 0.082-0.208 0.12-0.271 0.132-0.216 0.262-0.507 0.302-0.676 0.059-0.251 0.251-0.789 0.3-0.843 0.055-0.060 0.070-0.059 0.087 0.007zM21.459 29.748c-0.038 0.042-0.082 0.078-0.132 0.106l-0.003 0.001c-0.098 0.049-0.334 0.115-0.407 0.115h-0.059l0.059-0.073c0.077-0.096 0.37-0.211 0.552-0.218l0.049-0.002-0.060 0.070z"></path>
</symbol>
</defs>
</svg>
